<svg xmlns="http://www.w3.org/2000/svg" viewBox="0 0 54 33" fill="currentColor">
  <path d="M27 0c-7.2 0-11.7 3.6-13.5 10.8 2.7-3.6 5.85-4.95 9.45-4.05 2.054.513 3.522 2.004 5.147 3.653C30.744 13.09 33.808 15.2 40.5 15.2c7.2 0 11.7-3.6 13.5-10.8-2.7 3.6-5.85 4.95-9.45 4.05-2.054-.513-3.522-2.004-5.147-3.653C36.756 4.31 33.692 2.2 27 2.2zm-13.5 16.5c-7.2 0-11.7 3.6-13.5 10.8 2.7-3.6 5.85-4.95 9.45-4.05 2.054.514 3.522 2.004 5.147 3.653C11.244 29.59 14.308 31.7 21 31.7c7.2 0 11.7-3.6 13.5-10.8-2.7 3.6-5.85 4.95-9.45 4.05-2.054-.513-3.522-2.004-5.147-3.653C17.256 20.81 14.192 18.7 13.5 16.5z"/>
</svg>
