<svg xmlns="http://www.w3.org/2000/svg" xmlns:xlink="http://www.w3.org/1999/xlink" width="52" height="51.998260498046875" viewBox="0 0 52 51.998260498046875" fill="none"><g filter="url(#filter_37_31)"><path  transform="translate(8, 6)"   fill="#000000"  d="M18 0C25.76 0 29.64 0 32.43 2.34Q33.0987 2.90131 33.66 3.57C36 6.36 36 10.24 36 18L35.9983 18C35.9983 25.76 35.9983 29.64 33.66 32.43Q33.0987 33.0987 32.43 33.66C29.64 35.9983 25.76 35.9983 18 35.9983L18 35.9983C10.24 35.9983 6.36 35.9983 3.57 33.66Q2.90131 33.0987 2.34 32.43C0 29.64 0 25.76 0 18L0 18C0 10.24 0 6.36 2.34 3.57Q2.90131 2.90131 3.57 2.34C6.36 0 10.24 0 18 0Z"></path><path     fill="#FFFFFF"  d="M25.75 23L26.25 23C26.6642 23 27 23.3358 27 23.75L27 24.25C27 24.6642 26.6642 25 26.25 25L25.75 25C25.3358 25 25 24.6642 25 24.25L25 23.75C25 23.3358 25.3358 23 25.75 23Z"></path><path   fill-rule="evenodd"  fill="#FFFFFF"  d="M33.9838 13.6808C34.0717 13.3227 33.792 12.9815 33.4238 13.0008C21.7441 13.6141 19.8621 29.023 19.0038 36.3808C18.9641 36.7208 19.2315 37.0008 19.5738 37.0008L20.1238 37.0008C20.4089 37.0008 20.6474 36.7921 20.6938 36.5108C21.3022 32.821 22.6915 30.7851 24.8538 30.4008C28.1586 29.814 30.6525 26.3601 31.5538 22.8408C31.5943 22.6829 31.5575 22.5143 31.4638 22.3808L31.0038 21.7208C30.8646 21.5225 30.8633 21.2582 31.0038 21.0608L31.6238 20.1908C32.4129 19.0678 33.1947 16.8957 33.9838 13.6808ZM21.7534 29.5749C21.9022 28.8747 22.0664 28.1843 22.2634 27.4349C24.0021 20.7973 26.9036 16.6862 31.6334 15.6449C31.1996 17.019 30.7871 17.9683 30.4234 18.4849L29.5734 19.6949L28.3834 21.3949L29.6134 23.1349C28.6577 25.6392 26.7685 27.6377 24.6434 28.0149C23.5297 28.213 22.5653 28.7377 21.7534 29.5749Z"></path></g><defs><filter id="filter_37_31" x="0" y="0" width="52" height="51.998260498046875" filterUnits="userSpaceOnUse" color-interpolation-filters="sRGB"><feFlood flood-opacity="0" result="feFloodId_37_31"/><feColorMatrix in="SourceAlpha" type="matrix" values="0 0 0 0 0 0 0 0 0 0 0 0 0 0 0 0 0 0 127 0" result="hardAlpha_37_31"/><feOffset dx="0" dy="2"/><feGaussianBlur stdDeviation="4"/><feComposite in2="hardAlpha_37_31" operator="out"/><feColorMatrix type="matrix" values="0 0 0 0 0 0 0 0 0 0 0 0 0 0 0 0 0 0 0.25 0"/><feBlend mode="normal" in2="feFloodId_37_31" result="dropShadow_1_37_31"/><feBlend mode="normal" in="SourceGraphic" in2="dropShadow_1_37_31" result="shape_37_31"/></filter></defs></svg>
