<svg xmlns="http://www.w3.org/2000/svg" xmlns:xlink="http://www.w3.org/1999/xlink" width="15.000244140625" height="24.000778198242188" viewBox="0 0 15.000244140625 24.000778198242188" fill="none"><path   fill-rule="evenodd"  fill="#000000"  d="M14.9839 0.680785C15.0718 0.322658 14.7922 -0.0185482 14.4239 0.00078474C2.7443 0.613957 0.862116 16.0131 0.00392207 23.3708C-0.0357362 23.7108 0.231609 24.0008 0.573922 24.0008L1.12392 24.0008C1.40903 24.0008 1.65759 23.7921 1.70392 23.5108C2.3116 19.821 3.6916 17.7851 5.85392 17.4008C9.16214 16.8134 11.6548 13.3536 12.5539 9.83078C12.5942 9.67305 12.5573 9.51415 12.4639 9.38078L12.0039 8.72078C11.8654 8.52289 11.8643 8.25791 12.0039 8.06078L12.6239 7.19078C13.413 6.06779 14.1947 3.89601 14.9839 0.680785ZM3.26352 14.4349C3.06648 15.1843 2.90236 15.8747 2.75352 16.5749C3.56538 15.7377 4.52984 15.213 5.64352 15.0149C7.76866 14.6377 9.65787 12.6392 10.6135 10.1349L9.38352 8.39489L10.5735 6.69489L11.4235 5.48488C11.7872 4.96833 12.1997 4.01896 12.6335 2.64488C7.90374 3.68621 5.00219 7.79733 3.26352 14.4349ZM6.75012 9.99998L7.25012 9.99998C7.66434 9.99998 8.00012 10.3358 8.00012 10.75L8.00012 11.25C8.00012 11.6642 7.66434 12 7.25012 12L6.75012 12C6.33591 12 6.00012 11.6642 6.00012 11.25L6.00012 10.75C6.00012 10.3358 6.33591 9.99998 6.75012 9.99998Z"></path></svg>
